<mxfile host="app.diagrams.net" modified="2024-09-20T14:33:37.875Z" agent="Mozilla/5.0 (Windows NT 10.0; Win64; x64) AppleWebKit/537.36 (KHTML, like Gecko) Chrome/127.0.0.0 Safari/537.36 OPR/113.0.0.0" etag="RK69a5fkb11Iwnvw1LMa" version="24.4.0" type="device">
  <diagram name="PÃ¡gina-1" id="A8D3vDt-O_oyXn42NGln">
    <mxGraphModel dx="2837" dy="2395" grid="1" gridSize="10" guides="1" tooltips="1" connect="1" arrows="1" fold="1" page="1" pageScale="1" pageWidth="827" pageHeight="1169" math="0" shadow="0">
      <root>
        <mxCell id="0" />
        <mxCell id="1" parent="0" />
        <mxCell id="_Yccz2qh3X0owNRsv_Yp-6" style="edgeStyle=orthogonalEdgeStyle;rounded=0;orthogonalLoop=1;jettySize=auto;html=1;exitX=1;exitY=0;exitDx=0;exitDy=0;entryX=0;entryY=0.5;entryDx=0;entryDy=0;" edge="1" parent="1" source="_Yccz2qh3X0owNRsv_Yp-2" target="_Yccz2qh3X0owNRsv_Yp-4">
          <mxGeometry relative="1" as="geometry" />
        </mxCell>
        <mxCell id="_Yccz2qh3X0owNRsv_Yp-7" style="edgeStyle=orthogonalEdgeStyle;rounded=0;orthogonalLoop=1;jettySize=auto;html=1;exitX=1;exitY=1;exitDx=0;exitDy=0;entryX=0;entryY=0.5;entryDx=0;entryDy=0;" edge="1" parent="1" source="_Yccz2qh3X0owNRsv_Yp-2" target="_Yccz2qh3X0owNRsv_Yp-5">
          <mxGeometry relative="1" as="geometry" />
        </mxCell>
        <mxCell id="_Yccz2qh3X0owNRsv_Yp-11" style="edgeStyle=orthogonalEdgeStyle;rounded=0;orthogonalLoop=1;jettySize=auto;html=1;exitX=0.5;exitY=1;exitDx=0;exitDy=0;" edge="1" parent="1" source="_Yccz2qh3X0owNRsv_Yp-2" target="_Yccz2qh3X0owNRsv_Yp-8">
          <mxGeometry relative="1" as="geometry" />
        </mxCell>
        <mxCell id="_Yccz2qh3X0owNRsv_Yp-2" value="Inicio de sesion" style="ellipse;whiteSpace=wrap;html=1;" vertex="1" parent="1">
          <mxGeometry x="350" y="190" width="120" height="80" as="geometry" />
        </mxCell>
        <mxCell id="_Yccz2qh3X0owNRsv_Yp-15" style="edgeStyle=orthogonalEdgeStyle;rounded=0;orthogonalLoop=1;jettySize=auto;html=1;exitX=1;exitY=0.5;exitDx=0;exitDy=0;entryX=0;entryY=0.5;entryDx=0;entryDy=0;" edge="1" parent="1" source="_Yccz2qh3X0owNRsv_Yp-4" target="_Yccz2qh3X0owNRsv_Yp-14">
          <mxGeometry relative="1" as="geometry" />
        </mxCell>
        <mxCell id="_Yccz2qh3X0owNRsv_Yp-4" value="Usuario" style="ellipse;whiteSpace=wrap;html=1;" vertex="1" parent="1">
          <mxGeometry x="510" y="80" width="120" height="80" as="geometry" />
        </mxCell>
        <mxCell id="_Yccz2qh3X0owNRsv_Yp-52" style="edgeStyle=orthogonalEdgeStyle;rounded=0;orthogonalLoop=1;jettySize=auto;html=1;exitX=1;exitY=0.5;exitDx=0;exitDy=0;entryX=0;entryY=0.5;entryDx=0;entryDy=0;" edge="1" parent="1" source="_Yccz2qh3X0owNRsv_Yp-5" target="_Yccz2qh3X0owNRsv_Yp-51">
          <mxGeometry relative="1" as="geometry" />
        </mxCell>
        <mxCell id="_Yccz2qh3X0owNRsv_Yp-5" value="Administrador" style="ellipse;whiteSpace=wrap;html=1;" vertex="1" parent="1">
          <mxGeometry x="520" y="280" width="120" height="80" as="geometry" />
        </mxCell>
        <mxCell id="_Yccz2qh3X0owNRsv_Yp-12" style="edgeStyle=orthogonalEdgeStyle;rounded=0;orthogonalLoop=1;jettySize=auto;html=1;exitX=0;exitY=0.5;exitDx=0;exitDy=0;entryX=0;entryY=1;entryDx=0;entryDy=0;" edge="1" parent="1" source="_Yccz2qh3X0owNRsv_Yp-8" target="_Yccz2qh3X0owNRsv_Yp-2">
          <mxGeometry relative="1" as="geometry" />
        </mxCell>
        <mxCell id="_Yccz2qh3X0owNRsv_Yp-8" value="Crear Cuenta" style="ellipse;whiteSpace=wrap;html=1;" vertex="1" parent="1">
          <mxGeometry x="350" y="310" width="120" height="80" as="geometry" />
        </mxCell>
        <mxCell id="_Yccz2qh3X0owNRsv_Yp-10" value="" style="edgeStyle=orthogonalEdgeStyle;rounded=0;orthogonalLoop=1;jettySize=auto;html=1;" edge="1" parent="1" source="_Yccz2qh3X0owNRsv_Yp-9" target="_Yccz2qh3X0owNRsv_Yp-2">
          <mxGeometry relative="1" as="geometry" />
        </mxCell>
        <mxCell id="_Yccz2qh3X0owNRsv_Yp-17" style="edgeStyle=orthogonalEdgeStyle;rounded=0;orthogonalLoop=1;jettySize=auto;html=1;exitX=0.5;exitY=0;exitDx=0;exitDy=0;entryX=0.5;entryY=1;entryDx=0;entryDy=0;" edge="1" parent="1" source="_Yccz2qh3X0owNRsv_Yp-9" target="_Yccz2qh3X0owNRsv_Yp-16">
          <mxGeometry relative="1" as="geometry" />
        </mxCell>
        <mxCell id="_Yccz2qh3X0owNRsv_Yp-9" value="Home sin usuario" style="ellipse;whiteSpace=wrap;html=1;" vertex="1" parent="1">
          <mxGeometry x="140" y="190" width="120" height="80" as="geometry" />
        </mxCell>
        <mxCell id="_Yccz2qh3X0owNRsv_Yp-47" style="edgeStyle=orthogonalEdgeStyle;rounded=0;orthogonalLoop=1;jettySize=auto;html=1;exitX=1;exitY=0.5;exitDx=0;exitDy=0;entryX=0;entryY=0.5;entryDx=0;entryDy=0;" edge="1" parent="1" source="_Yccz2qh3X0owNRsv_Yp-14" target="_Yccz2qh3X0owNRsv_Yp-35">
          <mxGeometry relative="1" as="geometry" />
        </mxCell>
        <mxCell id="_Yccz2qh3X0owNRsv_Yp-14" value="Home con usuario" style="ellipse;whiteSpace=wrap;html=1;" vertex="1" parent="1">
          <mxGeometry x="690" y="80" width="120" height="80" as="geometry" />
        </mxCell>
        <mxCell id="_Yccz2qh3X0owNRsv_Yp-19" style="edgeStyle=orthogonalEdgeStyle;rounded=0;orthogonalLoop=1;jettySize=auto;html=1;exitX=0.5;exitY=0;exitDx=0;exitDy=0;entryX=0.5;entryY=1;entryDx=0;entryDy=0;" edge="1" parent="1" source="_Yccz2qh3X0owNRsv_Yp-16" target="_Yccz2qh3X0owNRsv_Yp-18">
          <mxGeometry relative="1" as="geometry" />
        </mxCell>
        <mxCell id="_Yccz2qh3X0owNRsv_Yp-24" style="edgeStyle=orthogonalEdgeStyle;rounded=0;orthogonalLoop=1;jettySize=auto;html=1;exitX=1;exitY=1;exitDx=0;exitDy=0;entryX=1;entryY=0;entryDx=0;entryDy=0;" edge="1" parent="1" source="_Yccz2qh3X0owNRsv_Yp-16" target="_Yccz2qh3X0owNRsv_Yp-9">
          <mxGeometry relative="1" as="geometry" />
        </mxCell>
        <mxCell id="_Yccz2qh3X0owNRsv_Yp-16" value="Peliculas" style="ellipse;whiteSpace=wrap;html=1;" vertex="1" parent="1">
          <mxGeometry x="140" y="50" width="120" height="80" as="geometry" />
        </mxCell>
        <mxCell id="_Yccz2qh3X0owNRsv_Yp-20" style="edgeStyle=orthogonalEdgeStyle;rounded=0;orthogonalLoop=1;jettySize=auto;html=1;exitX=1;exitY=1;exitDx=0;exitDy=0;entryX=1;entryY=0;entryDx=0;entryDy=0;" edge="1" parent="1" source="_Yccz2qh3X0owNRsv_Yp-18" target="_Yccz2qh3X0owNRsv_Yp-16">
          <mxGeometry relative="1" as="geometry" />
        </mxCell>
        <mxCell id="_Yccz2qh3X0owNRsv_Yp-22" style="edgeStyle=orthogonalEdgeStyle;rounded=0;orthogonalLoop=1;jettySize=auto;html=1;exitX=0.5;exitY=0;exitDx=0;exitDy=0;entryX=0.5;entryY=1;entryDx=0;entryDy=0;" edge="1" parent="1" source="_Yccz2qh3X0owNRsv_Yp-18" target="_Yccz2qh3X0owNRsv_Yp-21">
          <mxGeometry relative="1" as="geometry" />
        </mxCell>
        <mxCell id="_Yccz2qh3X0owNRsv_Yp-18" value="Horas" style="ellipse;whiteSpace=wrap;html=1;" vertex="1" parent="1">
          <mxGeometry x="140" y="-90" width="120" height="80" as="geometry" />
        </mxCell>
        <mxCell id="_Yccz2qh3X0owNRsv_Yp-23" style="edgeStyle=orthogonalEdgeStyle;rounded=0;orthogonalLoop=1;jettySize=auto;html=1;exitX=1;exitY=1;exitDx=0;exitDy=0;entryX=1;entryY=0;entryDx=0;entryDy=0;" edge="1" parent="1" source="_Yccz2qh3X0owNRsv_Yp-21" target="_Yccz2qh3X0owNRsv_Yp-18">
          <mxGeometry relative="1" as="geometry" />
        </mxCell>
        <mxCell id="_Yccz2qh3X0owNRsv_Yp-26" style="edgeStyle=orthogonalEdgeStyle;rounded=0;orthogonalLoop=1;jettySize=auto;html=1;exitX=1;exitY=0.5;exitDx=0;exitDy=0;entryX=0;entryY=0.5;entryDx=0;entryDy=0;" edge="1" parent="1" source="_Yccz2qh3X0owNRsv_Yp-21" target="_Yccz2qh3X0owNRsv_Yp-25">
          <mxGeometry relative="1" as="geometry" />
        </mxCell>
        <mxCell id="_Yccz2qh3X0owNRsv_Yp-21" value="Butacas" style="ellipse;whiteSpace=wrap;html=1;" vertex="1" parent="1">
          <mxGeometry x="140" y="-210" width="120" height="80" as="geometry" />
        </mxCell>
        <mxCell id="_Yccz2qh3X0owNRsv_Yp-27" style="edgeStyle=orthogonalEdgeStyle;rounded=0;orthogonalLoop=1;jettySize=auto;html=1;exitX=0;exitY=0;exitDx=0;exitDy=0;entryX=1;entryY=0;entryDx=0;entryDy=0;" edge="1" parent="1" source="_Yccz2qh3X0owNRsv_Yp-25" target="_Yccz2qh3X0owNRsv_Yp-21">
          <mxGeometry relative="1" as="geometry" />
        </mxCell>
        <mxCell id="_Yccz2qh3X0owNRsv_Yp-29" style="edgeStyle=orthogonalEdgeStyle;rounded=0;orthogonalLoop=1;jettySize=auto;html=1;exitX=0.5;exitY=1;exitDx=0;exitDy=0;entryX=0.5;entryY=0;entryDx=0;entryDy=0;" edge="1" parent="1" source="_Yccz2qh3X0owNRsv_Yp-25" target="_Yccz2qh3X0owNRsv_Yp-28">
          <mxGeometry relative="1" as="geometry" />
        </mxCell>
        <mxCell id="_Yccz2qh3X0owNRsv_Yp-25" value="Bar" style="ellipse;whiteSpace=wrap;html=1;" vertex="1" parent="1">
          <mxGeometry x="360" y="-210" width="120" height="80" as="geometry" />
        </mxCell>
        <mxCell id="_Yccz2qh3X0owNRsv_Yp-28" value="Pagar" style="ellipse;whiteSpace=wrap;html=1;" vertex="1" parent="1">
          <mxGeometry x="360" y="-90" width="120" height="80" as="geometry" />
        </mxCell>
        <mxCell id="_Yccz2qh3X0owNRsv_Yp-30" value="Correo electronico" style="ellipse;whiteSpace=wrap;html=1;" vertex="1" parent="1">
          <mxGeometry x="440" y="-90" width="120" height="80" as="geometry" />
        </mxCell>
        <mxCell id="_Yccz2qh3X0owNRsv_Yp-33" value="" style="endArrow=classic;html=1;rounded=0;exitX=0.5;exitY=1;exitDx=0;exitDy=0;entryX=1;entryY=0;entryDx=0;entryDy=0;" edge="1" parent="1" source="_Yccz2qh3X0owNRsv_Yp-28" target="_Yccz2qh3X0owNRsv_Yp-9">
          <mxGeometry width="50" height="50" relative="1" as="geometry">
            <mxPoint x="460" y="120" as="sourcePoint" />
            <mxPoint x="510" y="70" as="targetPoint" />
          </mxGeometry>
        </mxCell>
        <mxCell id="_Yccz2qh3X0owNRsv_Yp-34" style="edgeStyle=orthogonalEdgeStyle;rounded=0;orthogonalLoop=1;jettySize=auto;html=1;exitX=0.5;exitY=0;exitDx=0;exitDy=0;entryX=0.5;entryY=1;entryDx=0;entryDy=0;" edge="1" parent="1" source="_Yccz2qh3X0owNRsv_Yp-35" target="_Yccz2qh3X0owNRsv_Yp-38">
          <mxGeometry relative="1" as="geometry" />
        </mxCell>
        <mxCell id="_Yccz2qh3X0owNRsv_Yp-49" style="edgeStyle=orthogonalEdgeStyle;rounded=0;orthogonalLoop=1;jettySize=auto;html=1;exitX=0.5;exitY=1;exitDx=0;exitDy=0;entryX=0.5;entryY=0;entryDx=0;entryDy=0;" edge="1" parent="1" source="_Yccz2qh3X0owNRsv_Yp-35" target="_Yccz2qh3X0owNRsv_Yp-48">
          <mxGeometry relative="1" as="geometry" />
        </mxCell>
        <mxCell id="_Yccz2qh3X0owNRsv_Yp-35" value="Peliculas" style="ellipse;whiteSpace=wrap;html=1;" vertex="1" parent="1">
          <mxGeometry x="880" y="80" width="120" height="80" as="geometry" />
        </mxCell>
        <mxCell id="_Yccz2qh3X0owNRsv_Yp-36" style="edgeStyle=orthogonalEdgeStyle;rounded=0;orthogonalLoop=1;jettySize=auto;html=1;exitX=1;exitY=1;exitDx=0;exitDy=0;entryX=1;entryY=0;entryDx=0;entryDy=0;" edge="1" parent="1" source="_Yccz2qh3X0owNRsv_Yp-38" target="_Yccz2qh3X0owNRsv_Yp-35">
          <mxGeometry relative="1" as="geometry" />
        </mxCell>
        <mxCell id="_Yccz2qh3X0owNRsv_Yp-37" style="edgeStyle=orthogonalEdgeStyle;rounded=0;orthogonalLoop=1;jettySize=auto;html=1;exitX=0.5;exitY=0;exitDx=0;exitDy=0;entryX=0.5;entryY=1;entryDx=0;entryDy=0;" edge="1" parent="1" source="_Yccz2qh3X0owNRsv_Yp-38" target="_Yccz2qh3X0owNRsv_Yp-41">
          <mxGeometry relative="1" as="geometry" />
        </mxCell>
        <mxCell id="_Yccz2qh3X0owNRsv_Yp-38" value="Horas" style="ellipse;whiteSpace=wrap;html=1;" vertex="1" parent="1">
          <mxGeometry x="880" y="-60" width="120" height="80" as="geometry" />
        </mxCell>
        <mxCell id="_Yccz2qh3X0owNRsv_Yp-39" style="edgeStyle=orthogonalEdgeStyle;rounded=0;orthogonalLoop=1;jettySize=auto;html=1;exitX=1;exitY=1;exitDx=0;exitDy=0;entryX=1;entryY=0;entryDx=0;entryDy=0;" edge="1" parent="1" source="_Yccz2qh3X0owNRsv_Yp-41" target="_Yccz2qh3X0owNRsv_Yp-38">
          <mxGeometry relative="1" as="geometry" />
        </mxCell>
        <mxCell id="_Yccz2qh3X0owNRsv_Yp-40" style="edgeStyle=orthogonalEdgeStyle;rounded=0;orthogonalLoop=1;jettySize=auto;html=1;exitX=1;exitY=0.5;exitDx=0;exitDy=0;entryX=0;entryY=0.5;entryDx=0;entryDy=0;" edge="1" parent="1" source="_Yccz2qh3X0owNRsv_Yp-41" target="_Yccz2qh3X0owNRsv_Yp-44">
          <mxGeometry relative="1" as="geometry" />
        </mxCell>
        <mxCell id="_Yccz2qh3X0owNRsv_Yp-41" value="Butacas" style="ellipse;whiteSpace=wrap;html=1;" vertex="1" parent="1">
          <mxGeometry x="880" y="-180" width="120" height="80" as="geometry" />
        </mxCell>
        <mxCell id="_Yccz2qh3X0owNRsv_Yp-42" style="edgeStyle=orthogonalEdgeStyle;rounded=0;orthogonalLoop=1;jettySize=auto;html=1;exitX=0;exitY=0;exitDx=0;exitDy=0;entryX=1;entryY=0;entryDx=0;entryDy=0;" edge="1" parent="1" source="_Yccz2qh3X0owNRsv_Yp-44" target="_Yccz2qh3X0owNRsv_Yp-41">
          <mxGeometry relative="1" as="geometry" />
        </mxCell>
        <mxCell id="_Yccz2qh3X0owNRsv_Yp-43" style="edgeStyle=orthogonalEdgeStyle;rounded=0;orthogonalLoop=1;jettySize=auto;html=1;exitX=0.5;exitY=1;exitDx=0;exitDy=0;entryX=0.5;entryY=0;entryDx=0;entryDy=0;" edge="1" parent="1" source="_Yccz2qh3X0owNRsv_Yp-44" target="_Yccz2qh3X0owNRsv_Yp-45">
          <mxGeometry relative="1" as="geometry" />
        </mxCell>
        <mxCell id="_Yccz2qh3X0owNRsv_Yp-44" value="Bar" style="ellipse;whiteSpace=wrap;html=1;" vertex="1" parent="1">
          <mxGeometry x="1100" y="-180" width="120" height="80" as="geometry" />
        </mxCell>
        <mxCell id="_Yccz2qh3X0owNRsv_Yp-50" style="edgeStyle=orthogonalEdgeStyle;rounded=0;orthogonalLoop=1;jettySize=auto;html=1;exitX=0.5;exitY=1;exitDx=0;exitDy=0;" edge="1" parent="1" source="_Yccz2qh3X0owNRsv_Yp-45" target="_Yccz2qh3X0owNRsv_Yp-14">
          <mxGeometry relative="1" as="geometry" />
        </mxCell>
        <mxCell id="_Yccz2qh3X0owNRsv_Yp-45" value="Confirmacion de pago" style="ellipse;whiteSpace=wrap;html=1;" vertex="1" parent="1">
          <mxGeometry x="1100" y="-60" width="120" height="80" as="geometry" />
        </mxCell>
        <mxCell id="_Yccz2qh3X0owNRsv_Yp-48" value="ReseÃ±as y valoraciones" style="ellipse;whiteSpace=wrap;html=1;" vertex="1" parent="1">
          <mxGeometry x="880" y="200" width="120" height="80" as="geometry" />
        </mxCell>
        <mxCell id="_Yccz2qh3X0owNRsv_Yp-56" style="edgeStyle=orthogonalEdgeStyle;rounded=0;orthogonalLoop=1;jettySize=auto;html=1;exitX=0.5;exitY=1;exitDx=0;exitDy=0;entryX=0.5;entryY=0;entryDx=0;entryDy=0;" edge="1" parent="1" source="_Yccz2qh3X0owNRsv_Yp-51" target="_Yccz2qh3X0owNRsv_Yp-55">
          <mxGeometry relative="1" as="geometry" />
        </mxCell>
        <mxCell id="_Yccz2qh3X0owNRsv_Yp-51" value="Salas y bar" style="ellipse;whiteSpace=wrap;html=1;" vertex="1" parent="1">
          <mxGeometry x="690" y="280" width="120" height="80" as="geometry" />
        </mxCell>
        <mxCell id="_Yccz2qh3X0owNRsv_Yp-60" style="edgeStyle=orthogonalEdgeStyle;rounded=0;orthogonalLoop=1;jettySize=auto;html=1;exitX=1;exitY=0.5;exitDx=0;exitDy=0;entryX=0;entryY=0.5;entryDx=0;entryDy=0;" edge="1" parent="1" source="_Yccz2qh3X0owNRsv_Yp-53" target="_Yccz2qh3X0owNRsv_Yp-59">
          <mxGeometry relative="1" as="geometry" />
        </mxCell>
        <mxCell id="_Yccz2qh3X0owNRsv_Yp-53" value="Salas" style="ellipse;whiteSpace=wrap;html=1;" vertex="1" parent="1">
          <mxGeometry x="890" y="310" width="120" height="80" as="geometry" />
        </mxCell>
        <mxCell id="_Yccz2qh3X0owNRsv_Yp-58" style="edgeStyle=orthogonalEdgeStyle;rounded=0;orthogonalLoop=1;jettySize=auto;html=1;exitX=0;exitY=0.5;exitDx=0;exitDy=0;entryX=1;entryY=0.5;entryDx=0;entryDy=0;" edge="1" parent="1" source="_Yccz2qh3X0owNRsv_Yp-55" target="_Yccz2qh3X0owNRsv_Yp-57">
          <mxGeometry relative="1" as="geometry" />
        </mxCell>
        <mxCell id="_Yccz2qh3X0owNRsv_Yp-55" value="Bar" style="ellipse;whiteSpace=wrap;html=1;" vertex="1" parent="1">
          <mxGeometry x="740" y="410" width="120" height="80" as="geometry" />
        </mxCell>
        <mxCell id="_Yccz2qh3X0owNRsv_Yp-57" value="Producto" style="ellipse;whiteSpace=wrap;html=1;" vertex="1" parent="1">
          <mxGeometry x="590" y="410" width="120" height="80" as="geometry" />
        </mxCell>
        <mxCell id="_Yccz2qh3X0owNRsv_Yp-59" value="Detalles de sala" style="ellipse;whiteSpace=wrap;html=1;" vertex="1" parent="1">
          <mxGeometry x="1050" y="310" width="120" height="80" as="geometry" />
        </mxCell>
        <mxCell id="_Yccz2qh3X0owNRsv_Yp-63" value="" style="endArrow=classic;html=1;rounded=0;entryX=0;entryY=0;entryDx=0;entryDy=0;exitX=0.922;exitY=0.263;exitDx=0;exitDy=0;exitPerimeter=0;" edge="1" parent="1" source="_Yccz2qh3X0owNRsv_Yp-51" target="_Yccz2qh3X0owNRsv_Yp-53">
          <mxGeometry width="50" height="50" relative="1" as="geometry">
            <mxPoint x="760" y="340" as="sourcePoint" />
            <mxPoint x="810" y="290" as="targetPoint" />
          </mxGeometry>
        </mxCell>
        <mxCell id="_Yccz2qh3X0owNRsv_Yp-64" value="" style="endArrow=classic;html=1;rounded=0;exitX=0;exitY=0.5;exitDx=0;exitDy=0;entryX=1;entryY=1;entryDx=0;entryDy=0;" edge="1" parent="1" source="_Yccz2qh3X0owNRsv_Yp-53" target="_Yccz2qh3X0owNRsv_Yp-51">
          <mxGeometry width="50" height="50" relative="1" as="geometry">
            <mxPoint x="760" y="340" as="sourcePoint" />
            <mxPoint x="810" y="290" as="targetPoint" />
          </mxGeometry>
        </mxCell>
      </root>
    </mxGraphModel>
  </diagram>
</mxfile>
